<?xml version="1.0" encoding="UTF-8"?>
<svg width="475.15" height="89.89353257689346" viewBox="0 0 370.00000000000006 70.00022530453664" class="css-1j8o68f"><defs id="SvgjsDefs1185"><linearGradient id="SvgjsLinearGradient1190"><stop id="SvgjsStop1191" stop-color="#fe8dc6" offset="0"></stop><stop id="SvgjsStop1192" stop-color="#fed1c7" offset="1"></stop></linearGradient></defs><g id="SvgjsG1186" featurekey="PG4fjM-0" transform="matrix(0.5468725226931737,0,0,0.5468725226931737,0.00002711999052052024,0)" fill="url(#SvgjsLinearGradient1190)"><path xmlns="http://www.w3.org/2000/svg" d="M57.015,15.341c-0.579-0.39-1.319-0.448-1.952-0.158c-0.037,0.018-3.705,1.702-7.548,3.295  c-1.021,0.423-1.505,1.593-1.082,2.613c0.423,1.021,1.595,1.505,2.613,1.082c0.423-0.176,0.844-0.352,1.258-0.527  C35.191,42.58,16.475,50.114,16.272,50.193c-1.028,0.402-1.537,1.56-1.136,2.589c0.395,1.014,1.579,1.53,2.59,1.138  c0.872-0.339,20.01-8.002,35.761-29.841c-0.017,0.185-0.046,0.353-0.048,0.486c-0.042,2.186,1.911,2.234,1.989,2.234  c1,0,1.864-0.749,1.984-1.766c0.211-1.794,0.474-7.695,0.485-7.945C57.927,16.392,57.593,15.729,57.015,15.341z"></path><path xmlns="http://www.w3.org/2000/svg" d="M123.799,102.923L84.487,64l-3.78,3.879l-6.749-6.749c3.836-6.151,6.055-13.414,6.042-21.197  C79.961,17.863,62.063-0.001,40.001,0c-0.023,0-0.047,0-0.07,0C17.842,0.037-0.035,17.979,0,40.067C0.04,62.137,17.937,80,39.996,80  c0.023,0,0.049,0,0.072,0c7.735-0.014,14.95-2.228,21.063-6.041l6.911,6.911L64,85.017l39.312,38.922  c2.719,2.692,6.194,4.06,9.536,4.062c5.254,0.003,8.678-3.995,12.057-7.464C129.432,115.896,128.935,108.009,123.799,102.923z   M60,69.914V33c0-1.104-0.896-2-2-2c-1.105,0-2,0.896-2,2v39.236c-1.292,0.644-2.627,1.211-4,1.698V40c0-1.104-0.896-2-2-2  c-1.105,0-2,0.896-2,2v35.093c-1.309,0.298-2.642,0.529-4,0.681V50c0-1.104-0.896-2-2-2c-1.105,0-2,0.896-2,2v26h-0.004  c-1.351,0-2.683-0.082-3.996-0.228V56c0-1.104-0.896-2-2-2c-1.105,0-2,0.896-2,2v19.092c-1.364-0.31-2.699-0.696-4-1.158V60  c0-1.104-0.896-2-2-2c-1.105,0-2,0.896-2,2v12.232C12.181,66.337,4.025,54.134,4,40.062C3.969,20.21,20.09,4.033,39.938,4h0.063  h0.002C59.817,4,75.965,20.122,76,39.939C76.019,52.415,69.656,63.436,60,69.914z M64.464,71.636  c2.684-2.078,5.093-4.489,7.171-7.173l6.279,6.279l-7.08,7.264L64.464,71.636z M122.04,117.745c-2.615,2.682-5.06,6.255-9.185,6.255  c-2.412,0-4.864-1.059-6.728-2.904L69.635,84.967l14.903-15.288l36.446,36.086C124.558,109.304,125.032,114.678,122.04,117.745z"></path></g><g id="SvgjsG1187" featurekey="jxYttZ-0" transform="matrix(2.9409363980802103,0,0,2.9409363980802103,87.4119742307782,-8.58712582256711)" fill="#ffffff"><path d="M8.14 16.16 c0.04 0.12 0.38 1.1 -0.04 2.1 c-0.52 1.18 -1.9 1.94 -3.62 1.94 l-0.02 0 c-1.38 0 -2.64 -0.58 -3.58 -1.5 l1.34 -1.34 c0.56 0.72 1.36 1.08 2.24 1.08 c0.98 0 1.8 -0.36 2.02 -0.88 c0.14 -0.36 0.02 -0.74 0.02 -0.78 c-0.24 -0.6 -1.12 -0.72 -2.12 -0.94 c-1.34 -0.3 -2.68 -0.64 -3.2 -2.04 c-0.26 -0.72 -0.18 -1.56 0.18 -2.26 c0.82 -1.54 2.86 -1.6 3.1 -1.6 c1.38 0 2.68 0.52 3.6 1.46 l-1.34 1.34 c-0.56 -0.72 -1.38 -1.04 -2.26 -1.04 c-0.02 0 -1.2 0.02 -1.54 0.68 c-0.12 0.2 -0.18 0.54 -0.08 0.82 c0.2 0.56 1.1 0.74 2.06 0.96 c1.3 0.3 2.72 0.6 3.24 2 z M19.18 10.12 c0 0 -2.5 5.92 -4.16 9.88 c-1.4 3.32 -2.5 5.32 -4.36 5.32 c-0.58 0 -1.32 -0.28 -1.86 -0.6 l0.62 -1.8 c0.16 0.14 0.52 0.34 0.76 0.4 c1.54 0.44 2.5 -2.78 3.16 -4.36 l-3.74 -8.84 l2.08 0 l2.72 6.48 l2.7 -6.48 l2.08 0 z M27.68 17.42 l1.42 1.28 c-0.94 1.04 -2.28 1.5 -3.78 1.5 c-2.84 0 -5.14 -2.18 -5.14 -5.12 s2.3 -5.14 5.14 -5.14 c1.5 0 2.84 0.46 3.78 1.5 l-1.42 1.28 c-0.58 -0.78 -1.42 -1.08 -2.36 -1.08 c-1.7 0 -3.08 1.42 -3.08 3.44 c0 2 1.38 3.44 3.08 3.44 c0.94 0 1.78 -0.3 2.36 -1.1 z M40.44 14.3 l0 5.7 l-2.06 0 l0 -5.5 c0 -2 -0.62 -2.88 -2.32 -2.88 c-1.92 0 -2.7 1.34 -2.7 3.08 l0 5.3 l-2.06 0 l0 -15 l2.06 0 l0 6.72 c0.28 -0.88 1.52 -1.68 2.7 -1.76 c2.68 -0.2 4.38 1.1 4.38 4.34 z M47.779999999999994 11.64 c-1.7 0 -3.08 1.42 -3.08 3.44 c0 2 1.38 3.44 3.08 3.44 s3.08 -1.44 3.08 -3.44 c0 -2.02 -1.38 -3.44 -3.08 -3.44 z M47.779999999999994 9.94 c2.84 0 5.14 2.2 5.14 5.14 s-2.3 5.12 -5.14 5.12 s-5.14 -2.18 -5.14 -5.12 s2.3 -5.14 5.14 -5.14 z M63.39999999999999 4.619999999999999 l0 15.38 l-2.08 0 l0 -15.38 l2.08 0 z M70.61999999999999 9.92 c2.84 0 3.98 1.72 3.98 3.18 l0 6.9 l-2.06 0 l0 -1.08 c-0.72 0.98 -2 1.26 -2.8 1.26 c-2.26 0 -3.74 -1.32 -3.74 -3.08 c0 -2.46 1.84 -3.34 3.74 -3.34 l2.8 0 l0 -0.66 c0 -0.62 -0.24 -1.48 -1.92 -1.48 c-0.94 0 -1.8 0.5 -2.36 1.28 l-1.42 -1.28 c0.94 -1.04 2.28 -1.7 3.78 -1.7 z M72.53999999999999 16.92 l0 -1.48 l-2.52 0 c-1.22 0 -2.08 0.62 -1.94 1.74 c0.12 0.94 0.88 1.32 1.94 1.32 c1.9 0 2.52 -0.9 2.52 -1.58 z M82.03999999999999 9.94 c2.84 0 4.94 2.2 4.94 5.14 s-2.1 5.12 -4.94 5.12 c-0.96 0 -2.06 -0.36 -2.84 -0.94 l0 0.74 l-2.06 0 l0 -15 l2.06 0 l0 5.9 c0.66 -0.54 1.88 -0.96 2.84 -0.96 z M81.83999999999999 18.52 c1.7 0 3.08 -1.44 3.08 -3.44 c0 -2.02 -1.38 -3.44 -3.08 -3.44 c-1.12 0 -2.1 0.5 -2.64 1.56 c-0.28 0.56 -0.44 1.2 -0.44 1.88 s0.16 1.32 0.44 1.86 c0.54 1.06 1.52 1.58 2.64 1.58 z M95.92 16.16 c0.04 0.12 0.38 1.1 -0.04 2.1 c-0.52 1.18 -1.9 1.94 -3.62 1.94 l-0.02 0 c-1.38 0 -2.64 -0.58 -3.58 -1.5 l1.34 -1.34 c0.56 0.72 1.36 1.08 2.24 1.08 c0.98 0 1.8 -0.36 2.02 -0.88 c0.14 -0.36 0.02 -0.74 0.02 -0.78 c-0.24 -0.6 -1.12 -0.72 -2.12 -0.94 c-1.34 -0.3 -2.68 -0.64 -3.2 -2.04 c-0.26 -0.72 -0.18 -1.56 0.18 -2.26 c0.82 -1.54 2.86 -1.6 3.1 -1.6 c1.38 0 2.68 0.52 3.6 1.46 l-1.34 1.34 c-0.56 -0.72 -1.38 -1.04 -2.26 -1.04 c-0.02 0 -1.2 0.02 -1.54 0.68 c-0.12 0.2 -0.18 0.54 -0.08 0.82 c0.2 0.56 1.1 0.74 2.06 0.96 c1.3 0.3 2.72 0.6 3.24 2 z"></path></g></svg>